<svg width="387" height="269" viewBox="0 0 387 269" fill="none" xmlns="http://www.w3.org/2000/svg">
<g clip-path="url(#clip0_335_1067)">
<g clip-path="url(#clip1_335_1067)">
<g clip-path="url(#clip2_335_1067)">
<g clip-path="url(#clip3_335_1067)">
<g clip-path="url(#clip4_335_1067)">
<g clip-path="url(#clip5_335_1067)">
<g clip-path="url(#clip6_335_1067)">
<g clip-path="url(#clip7_335_1067)">
<path d="M88.9869 137.074H83.1534V115.119C83.1534 113.28 82.9235 111.685 82.4637 110.335C81.9944 108.975 81.228 107.926 80.1648 107.188C79.1015 106.441 77.6695 106.067 75.8687 106.067C74.1732 106.067 72.7028 106.417 71.4576 107.116C70.2123 107.806 69.2066 108.735 68.4403 109.904C67.6739 111.063 67.1327 112.385 66.8166 113.869L65.9258 109.731H66.6442C67.0274 108.227 67.6739 106.829 68.5839 105.536C69.4939 104.243 70.7248 103.198 72.2766 102.403C73.8379 101.618 75.7681 101.225 78.067 101.225C80.6725 101.225 82.7702 101.738 84.3603 102.763C85.9504 103.797 87.119 105.301 87.8662 107.274C88.6133 109.248 88.9869 111.647 88.9869 114.473V137.074ZM45.1923 137.074H39.3732V102.015H45.1923L44.9481 110.421L45.1923 110.78V137.074ZM67.0753 137.074H61.2848V115.119C61.2848 113.28 61.0501 111.685 60.5808 110.335C60.1114 108.975 59.3547 107.926 58.3106 107.188C57.2569 106.441 55.8297 106.067 54.0288 106.067C52.3046 106.067 50.8199 106.417 49.5747 107.116C48.3294 107.806 47.3236 108.745 46.5573 109.932C45.791 111.12 45.2546 112.471 44.9481 113.984L43.8704 109.846H45.1636C45.518 108.266 46.1406 106.824 47.0315 105.521C47.9127 104.209 49.1149 103.165 50.6379 102.389C52.161 101.613 54.0097 101.225 56.1841 101.225C59.4217 101.225 61.8835 102.063 63.5694 103.74C65.2553 105.416 66.3137 107.859 66.7448 111.067C66.8693 111.546 66.9555 112.068 67.0034 112.634C67.0513 113.189 67.0753 113.745 67.0753 114.3V137.074ZM112.723 137.864C107.378 137.864 103.355 136.557 100.654 133.942C97.9432 131.336 96.5878 127.601 96.5878 122.735V116.484C96.5878 111.551 97.8474 107.753 100.367 105.09C102.876 102.418 106.55 101.082 111.387 101.082C114.644 101.082 117.364 101.685 119.548 102.892C121.723 104.099 123.361 105.818 124.462 108.05C125.564 110.272 126.115 112.931 126.115 116.025V117.318C126.115 118.084 126.086 118.85 126.028 119.617C125.971 120.383 125.894 121.135 125.799 121.872H120.439C120.487 120.723 120.521 119.636 120.54 118.611C120.549 117.576 120.554 116.628 120.554 115.766C120.554 113.639 120.214 111.839 119.534 110.363C118.844 108.888 117.824 107.763 116.473 106.987C115.123 106.211 113.427 105.823 111.387 105.823C108.37 105.823 106.109 106.695 104.605 108.438C103.092 110.191 102.335 112.696 102.335 115.953V119.286L102.378 120.005V123.352C102.378 124.808 102.594 126.125 103.025 127.304C103.456 128.472 104.131 129.483 105.051 130.335C105.97 131.188 107.144 131.834 108.571 132.275C109.998 132.716 111.694 132.936 113.657 132.936C115.927 132.936 118.044 132.639 120.008 132.045C121.972 131.442 123.816 130.628 125.54 129.603L125.008 134.632C123.447 135.609 121.636 136.394 119.577 136.988C117.518 137.572 115.233 137.864 112.723 137.864ZM124.577 121.872H99.6482V117.49H124.577V121.872ZM145.44 137.836C141.225 137.836 138.016 136.528 135.813 133.913C133.61 131.298 132.509 127.49 132.509 122.49V116.7C132.509 111.671 133.624 107.835 135.856 105.191C138.079 102.547 141.359 101.225 145.699 101.225C147.854 101.225 149.722 101.589 151.302 102.317C152.883 103.045 154.162 104.07 155.139 105.392C156.125 106.704 156.786 108.261 157.121 110.062H159.018L157.294 115.407C157.227 113.347 156.767 111.618 155.914 110.22C155.062 108.821 153.912 107.763 152.466 107.044C151.02 106.326 149.363 105.967 147.495 105.967C144.525 105.967 142.255 106.829 140.684 108.553C139.113 110.277 138.328 112.816 138.328 116.168V122.849C138.328 126.154 139.113 128.669 140.684 130.393C142.255 132.117 144.525 132.979 147.495 132.979C149.267 132.979 150.833 132.639 152.193 131.959C153.563 131.269 154.693 130.321 155.584 129.114C156.484 127.907 157.102 126.537 157.438 125.005L158.874 129.172H157.15C156.815 130.752 156.173 132.198 155.225 133.511C154.286 134.833 153.017 135.882 151.417 136.657C149.827 137.443 147.835 137.836 145.44 137.836ZM162.969 137.074H157.15L157.409 128.597L157.294 126.729V112.073L157.337 110.852L157.193 100.895V89.4719H162.969V137.074ZM204.853 137.836C202.698 137.836 200.83 137.472 199.249 136.744C197.669 136.025 196.385 134.995 195.399 133.654C194.422 132.313 193.765 130.757 193.43 128.985H191.519L193.215 123.525C193.31 125.632 193.78 127.39 194.623 128.798C195.475 130.196 196.634 131.241 198.1 131.93C199.556 132.63 201.208 132.979 203.057 132.979C205.998 132.979 208.253 132.117 209.824 130.393C211.395 128.669 212.181 126.14 212.181 122.806V116.096C212.181 112.792 211.4 110.277 209.839 108.553C208.287 106.829 206.026 105.967 203.057 105.967C201.285 105.967 199.714 106.312 198.344 107.001C196.984 107.701 195.854 108.649 194.953 109.846C194.053 111.044 193.435 112.409 193.1 113.941L191.663 109.875H193.358C193.741 108.275 194.393 106.824 195.312 105.521C196.232 104.209 197.501 103.165 199.12 102.389C200.739 101.613 202.731 101.225 205.097 101.225C209.312 101.225 212.521 102.538 214.724 105.162C216.927 107.777 218.029 111.575 218.029 116.556V122.375C218.029 127.404 216.922 131.236 214.71 133.87C212.497 136.514 209.211 137.836 204.853 137.836ZM193.358 149.431H187.568V102.015H193.387L193.143 110.45L193.215 112.246V127.016L193.171 128.195L193.358 138.051V149.431ZM232.11 137.074H226.319V89.4719H232.11V137.074ZM241.334 102.015H247.124V123.827C247.124 125.666 247.378 127.275 247.886 128.654C248.403 130.034 249.251 131.097 250.429 131.844C251.598 132.601 253.178 132.979 255.171 132.979C257.039 132.979 258.643 132.639 259.984 131.959C261.325 131.269 262.417 130.326 263.26 129.128C264.113 127.931 264.697 126.58 265.013 125.077L266.048 129.2H264.797C264.433 130.781 263.773 132.227 262.815 133.54C261.857 134.842 260.568 135.882 258.95 136.657C257.34 137.443 255.348 137.836 252.972 137.836C250.223 137.836 247.991 137.314 246.277 136.269C244.562 135.225 243.312 133.702 242.527 131.7C241.732 129.698 241.334 127.285 241.334 124.459V102.015ZM264.754 102.015H270.574V137.074H264.754L265.013 128.669L264.754 128.309V102.015ZM291.005 137.864C288.179 137.864 285.713 137.558 283.606 136.945C281.498 136.332 279.75 135.666 278.361 134.948L277.83 129.559C279.573 130.469 281.493 131.26 283.591 131.93C285.689 132.601 288.065 132.936 290.718 132.936C293.429 132.936 295.464 132.505 296.824 131.643C298.194 130.79 298.879 129.512 298.879 127.807V127.404C298.879 126.303 298.62 125.393 298.103 124.674C297.586 123.956 296.657 123.324 295.316 122.778C293.975 122.222 292.073 121.671 289.612 121.125C286.661 120.474 284.338 119.712 282.643 118.841C280.938 117.969 279.721 116.887 278.993 115.594C278.265 114.3 277.901 112.72 277.901 110.852V110.521C277.901 107.456 278.965 105.133 281.091 103.553C283.227 101.972 286.436 101.182 290.718 101.182C293.477 101.182 295.867 101.493 297.888 102.116C299.909 102.739 301.566 103.433 302.859 104.199L303.405 109.128C301.844 108.218 300.057 107.461 298.046 106.858C296.034 106.264 293.774 105.967 291.264 105.967C289.444 105.967 287.969 106.154 286.838 106.527C285.718 106.891 284.904 107.418 284.396 108.108C283.898 108.788 283.649 109.607 283.649 110.565V110.852C283.649 111.906 283.898 112.796 284.396 113.524C284.904 114.252 285.809 114.889 287.111 115.435C288.414 115.972 290.229 116.489 292.557 116.987C295.546 117.591 297.921 118.309 299.684 119.142C301.446 119.985 302.711 121.049 303.477 122.332C304.243 123.606 304.626 125.249 304.626 127.261V127.878C304.626 131.183 303.477 133.674 301.178 135.35C298.879 137.026 295.488 137.864 291.005 137.864Z" fill="#16215B"/>
</g>
</g>
<g clip-path="url(#clip8_335_1067)">
<g clip-path="url(#clip9_335_1067)">
<path d="M43.3168 176.422C42.7443 176.422 42.2191 176.375 41.7412 176.28C41.2658 176.186 40.8415 176.07 40.4681 175.933C40.0948 175.796 39.7836 175.659 39.5347 175.522L39.3779 173.984C39.8558 174.271 40.4196 174.521 41.0692 174.735C41.7213 174.949 42.4295 175.056 43.1936 175.056C44.1145 175.056 44.7953 174.893 45.2358 174.567C45.6789 174.241 45.9004 173.75 45.9004 173.096V172.95C45.9004 172.519 45.8133 172.167 45.639 171.894C45.4648 171.62 45.1711 171.389 44.7579 171.203C44.3448 171.016 43.7835 170.842 43.0741 170.68C42.1781 170.469 41.46 170.218 40.9199 169.93C40.3822 169.638 39.994 169.275 39.755 168.839C39.5161 168.404 39.3966 167.863 39.3966 167.215V167.133C39.3966 166.155 39.7164 165.401 40.3561 164.871C40.9983 164.338 41.969 164.072 43.2683 164.072C44.122 164.072 44.8488 164.159 45.4486 164.333C46.0485 164.507 46.5388 164.7 46.9196 164.912L47.0578 166.331C46.6172 166.069 46.102 165.846 45.5121 165.662C44.9247 165.478 44.2514 165.386 43.4923 165.386C42.8899 165.386 42.4008 165.458 42.025 165.603C41.6541 165.744 41.3841 165.95 41.2148 166.219C41.0481 166.485 40.9647 166.808 40.9647 167.189V167.227C40.9647 167.612 41.0468 167.942 41.2111 168.216C41.3754 168.49 41.6641 168.726 42.0773 168.925C42.4929 169.124 43.0828 169.317 43.847 169.504C44.7256 169.708 45.4287 169.945 45.9564 170.213C46.4866 170.48 46.8711 170.828 47.11 171.259C47.349 171.687 47.4685 172.247 47.4685 172.939V173.137C47.4685 174.212 47.1212 175.028 46.4268 175.586C45.7349 176.143 44.6982 176.422 43.3168 176.422ZM53.3936 176.206H51.0713L48.8312 167.096H50.3881L52.1802 175.104H52.3594L54.2261 167.339H56.3617L58.2285 175.104H58.3965L60.2072 167.096H61.7566L59.5165 176.206H57.2018L55.6635 169.728L55.3649 168.429H55.223L54.9355 169.728L53.3936 176.206ZM65.0533 176.206H63.5375V167.096H65.0533V176.206ZM64.2954 165.603C63.9843 165.603 63.7528 165.52 63.601 165.356C63.4492 165.189 63.3733 164.963 63.3733 164.677V164.632C63.3733 164.338 63.4492 164.11 63.601 163.949C63.7528 163.787 63.9843 163.706 64.2954 163.706C64.6066 163.706 64.8405 163.787 64.9973 163.949C65.1517 164.11 65.2288 164.338 65.2288 164.632V164.677C65.2288 164.97 65.1517 165.198 64.9973 165.36C64.8405 165.522 64.6066 165.603 64.2954 165.603ZM70.6126 163.586C71.0805 163.586 71.4999 163.629 71.8708 163.713C72.2391 163.796 72.5789 163.899 72.89 164.023L73.0393 165.211C72.7357 165.099 72.4295 165.01 72.1209 164.945C71.8123 164.878 71.465 164.845 71.0792 164.845C70.6138 164.845 70.2392 164.906 69.9555 165.028C69.6717 165.15 69.4701 165.321 69.3506 165.543C69.2287 165.762 69.1677 166.027 69.1677 166.338V166.387C69.1677 166.603 69.1951 166.81 69.2498 167.006C69.3071 167.203 69.3693 167.382 69.4365 167.544L68.421 167.581V167.395C68.2268 167.245 68.0576 167.036 67.9132 166.767C67.7664 166.501 67.6929 166.19 67.6929 165.834V165.789C67.6929 165.122 67.9294 164.588 68.4023 164.188C68.8752 163.787 69.612 163.586 70.6126 163.586ZM69.5037 176.206H67.9991V167.906H69.5037V176.206ZM72.8639 168.645H66.4982V167.439L68.5778 167.451L69.1938 167.439H73.002L72.8639 168.645ZM77.8743 176.392C77.1723 176.392 76.6061 176.287 76.1755 176.075C75.7474 175.863 75.4363 175.542 75.2421 175.112C75.0505 174.684 74.9546 174.149 74.9546 173.506V167.757H76.448V173.331C76.448 173.928 76.5849 174.369 76.8587 174.653C77.1325 174.934 77.593 175.074 78.2401 175.074C78.606 175.074 78.9582 175.035 79.2967 174.955C79.6377 174.873 79.9576 174.757 80.2562 174.608L80.1144 175.907C79.8231 176.056 79.4809 176.175 79.0876 176.262C78.6969 176.349 78.2924 176.392 77.8743 176.392ZM80.021 168.44H73.4612V167.227H80.1629L80.021 168.44ZM76.4107 167.376H74.9621L74.9546 164.818L76.4742 164.621L76.4107 167.376ZM83.4932 176.206H81.9886V163.837H83.4932V176.206ZM89.2316 174.794H90.1015L89.3063 175.142L92.0318 167.096H93.5924L89.3063 179.417H87.7755L89.2129 175.254L89.8775 175.832H88.1601L85.1807 167.096H86.7488L89.2316 174.794ZM103.165 176.441C101.858 176.441 100.868 176.087 100.193 175.381C99.5187 174.674 99.1814 173.657 99.1814 172.33V170.941C99.1814 169.622 99.52 168.61 100.197 167.906C100.876 167.204 101.866 166.853 103.165 166.853C104.472 166.853 105.462 167.204 106.137 167.906C106.814 168.61 107.153 169.622 107.153 170.941V172.33C107.153 173.657 106.814 174.674 106.137 175.381C105.462 176.087 104.472 176.441 103.165 176.441ZM103.165 175.205C103.974 175.205 104.589 174.966 105.009 174.488C105.43 174.008 105.64 173.317 105.64 172.416V170.856C105.64 169.96 105.43 169.274 105.009 168.798C104.589 168.323 103.974 168.085 103.165 168.085C102.364 168.085 101.751 168.323 101.328 168.798C100.905 169.274 100.694 169.96 100.694 170.856V172.416C100.694 173.317 100.905 174.008 101.328 174.488C101.751 174.966 102.364 175.205 103.165 175.205ZM110.688 170.632L110.341 169.467L110.714 169.448C110.913 168.676 111.256 168.068 111.741 167.622C112.226 167.177 112.871 166.954 113.675 166.954C113.874 166.954 114.053 166.97 114.213 167.003C114.369 167.032 114.51 167.07 114.634 167.115L114.728 168.578C114.574 168.528 114.402 168.489 114.213 168.459C114.021 168.426 113.811 168.41 113.582 168.41C112.897 168.41 112.301 168.601 111.793 168.981C111.286 169.362 110.917 169.912 110.688 170.632ZM110.763 176.206H109.251V167.096H110.725L110.651 169.784L110.763 169.896V176.206ZM119.761 173.48C118.521 173.48 117.57 173.21 116.908 172.67C116.246 172.127 115.915 171.352 115.915 170.344V170.113C115.915 169.483 116.043 168.934 116.3 168.466C116.558 168.001 116.972 167.636 117.539 167.372C118.104 167.106 118.845 166.96 119.761 166.935L124.409 166.786V167.981L121.665 167.887L121.653 167.955C122.084 168.042 122.436 168.191 122.71 168.403C122.984 168.614 123.187 168.878 123.319 169.194C123.453 169.513 123.52 169.884 123.52 170.307V170.512C123.52 171.475 123.203 172.211 122.568 172.719C121.934 173.226 120.998 173.48 119.761 173.48ZM119.693 178.502H119.91C120.47 178.502 120.95 178.46 121.351 178.375C121.752 178.293 122.062 178.161 122.281 177.979C122.497 177.8 122.606 177.561 122.606 177.262V177.225C122.606 176.877 122.48 176.61 122.228 176.426C121.977 176.242 121.546 176.121 120.937 176.064L118.361 175.832L118.79 175.814C118.441 175.863 118.134 175.944 117.868 176.056C117.604 176.168 117.397 176.316 117.248 176.501C117.099 176.685 117.024 176.914 117.024 177.188V177.206C117.024 177.522 117.133 177.778 117.352 177.972C117.569 178.163 117.876 178.3 118.275 178.382C118.673 178.462 119.146 178.502 119.693 178.502ZM119.88 179.708H119.611C118.79 179.708 118.082 179.637 117.487 179.495C116.892 179.356 116.432 179.129 116.105 178.815C115.779 178.502 115.616 178.08 115.616 177.55V177.512C115.616 177.139 115.705 176.828 115.881 176.579C116.058 176.33 116.297 176.134 116.598 175.989C116.902 175.847 117.24 175.751 117.614 175.702L117.603 175.646C117.092 175.559 116.717 175.408 116.475 175.194C116.231 174.977 116.109 174.699 116.109 174.358V174.346C116.109 174.11 116.164 173.908 116.273 173.742C116.383 173.572 116.547 173.438 116.766 173.338C116.988 173.239 117.27 173.177 117.614 173.152V172.965L119.35 173.406L118.641 173.387C118.217 173.392 117.925 173.443 117.763 173.54C117.601 173.637 117.52 173.781 117.52 173.973V173.984C117.52 174.188 117.635 174.344 117.864 174.451C118.095 174.556 118.487 174.639 119.04 174.701L121.254 174.925C122.217 175.025 122.92 175.257 123.363 175.623C123.804 175.987 124.024 176.523 124.024 177.232V177.281C124.024 177.846 123.856 178.309 123.52 178.67C123.184 179.031 122.709 179.293 122.094 179.458C121.477 179.624 120.739 179.708 119.88 179.708ZM119.742 172.36C120.265 172.36 120.698 172.284 121.041 172.132C121.387 171.978 121.649 171.748 121.825 171.442C122.004 171.133 122.094 170.755 122.094 170.307V170.083C122.094 169.647 122.008 169.276 121.836 168.97C121.665 168.667 121.408 168.435 121.067 168.276C120.724 168.116 120.294 168.037 119.779 168.037H119.723C119.163 168.037 118.707 168.123 118.353 168.294C118.002 168.466 117.747 168.706 117.588 169.015C117.431 169.321 117.352 169.68 117.352 170.09V170.307C117.352 170.755 117.441 171.131 117.618 171.434C117.794 171.74 118.061 171.971 118.417 172.125C118.77 172.282 119.212 172.36 119.742 172.36ZM132.686 176.206H131.181L131.249 173.992L131.193 173.76V170.856L131.2 170.325C131.2 169.584 131.012 169.036 130.636 168.683C130.261 168.327 129.664 168.149 128.848 168.149C128.196 168.149 127.597 168.242 127.052 168.429C126.507 168.615 126.023 168.835 125.6 169.086L125.742 167.794C125.978 167.652 126.259 167.512 126.585 167.372C126.912 167.23 127.285 167.113 127.706 167.021C128.126 166.927 128.588 166.879 129.091 166.879C129.745 166.879 130.302 166.959 130.76 167.118C131.215 167.278 131.585 167.507 131.868 167.805C132.152 168.104 132.359 168.465 132.488 168.888C132.62 169.311 132.686 169.784 132.686 170.307V176.206ZM128.045 176.404C127.144 176.404 126.452 176.183 125.969 175.743C125.487 175.305 125.245 174.677 125.245 173.861V173.592C125.245 172.751 125.505 172.124 126.025 171.711C126.546 171.297 127.372 171.01 128.505 170.848L131.387 170.437L131.473 171.539L128.691 171.938C127.994 172.038 127.496 172.208 127.198 172.45C126.899 172.689 126.75 173.041 126.75 173.506V173.656C126.75 174.136 126.898 174.503 127.194 174.757C127.488 175.013 127.931 175.142 128.523 175.142C129.046 175.142 129.494 175.051 129.867 174.869C130.241 174.69 130.542 174.447 130.771 174.141C131.002 173.837 131.158 173.499 131.237 173.126L131.473 174.152H131.181C131.094 174.551 130.931 174.92 130.692 175.261C130.453 175.605 130.119 175.881 129.688 176.09C129.26 176.299 128.712 176.404 128.045 176.404ZM142.606 176.206H141.094V170.538C141.094 170.048 141.027 169.626 140.892 169.273C140.76 168.917 140.543 168.64 140.239 168.444C139.938 168.247 139.526 168.149 139.003 168.149C138.525 168.149 138.11 168.24 137.756 168.421C137.405 168.601 137.121 168.844 136.905 169.153C136.686 169.462 136.533 169.813 136.446 170.206L136.177 169.131H136.502C136.601 168.72 136.776 168.345 137.024 168.007C137.273 167.666 137.608 167.395 138.029 167.193C138.449 166.991 138.965 166.891 139.574 166.891C140.296 166.891 140.879 167.027 141.322 167.301C141.767 167.575 142.093 167.968 142.3 168.481C142.504 168.994 142.606 169.624 142.606 170.37V176.206ZM136.513 176.206H135.001V167.096H136.513L136.446 169.28L136.513 169.366V176.206ZM146.489 176.206H144.977V167.096H146.489V176.206ZM145.731 165.603C145.42 165.603 145.188 165.52 145.037 165.356C144.885 165.189 144.809 164.963 144.809 164.677V164.632C144.809 164.338 144.885 164.11 145.037 163.949C145.188 163.787 145.42 163.706 145.731 163.706C146.042 163.706 146.276 163.787 146.433 163.949C146.587 164.11 146.664 164.338 146.664 164.632V164.677C146.664 164.97 146.587 165.198 146.433 165.36C146.276 165.522 146.042 165.603 145.731 165.603ZM150.323 174.955H155.431V176.206H148.512V175.067L153.583 168.335H148.531V167.096H155.393V168.223L150.323 174.955ZM161.244 176.411C159.855 176.411 158.809 176.071 158.108 175.392C157.403 174.715 157.051 173.744 157.051 172.48V170.856C157.051 169.574 157.378 168.587 158.033 167.895C158.685 167.2 159.64 166.853 160.897 166.853C161.743 166.853 162.45 167.01 163.017 167.324C163.582 167.637 164.008 168.084 164.294 168.664C164.58 169.241 164.723 169.932 164.723 170.736V171.072C164.723 171.271 164.716 171.47 164.701 171.669C164.686 171.869 164.666 172.064 164.641 172.256H163.249C163.261 171.957 163.27 171.674 163.275 171.408C163.277 171.139 163.279 170.893 163.279 170.669C163.279 170.116 163.19 169.648 163.013 169.265C162.834 168.882 162.569 168.589 162.218 168.388C161.867 168.186 161.427 168.085 160.897 168.085C160.112 168.085 159.525 168.312 159.134 168.765C158.741 169.22 158.544 169.871 158.544 170.717V171.584L158.556 171.77V172.64C158.556 173.019 158.612 173.361 158.724 173.667C158.836 173.971 159.011 174.233 159.25 174.455C159.489 174.676 159.794 174.844 160.165 174.959C160.536 175.073 160.976 175.13 161.486 175.13C162.076 175.13 162.626 175.053 163.137 174.899C163.647 174.742 164.126 174.531 164.574 174.264L164.436 175.571C164.03 175.825 163.56 176.029 163.025 176.183C162.489 176.335 161.896 176.411 161.244 176.411ZM164.324 172.256H157.846V171.117H164.324V172.256ZM174.289 174.794H175.159L174.363 175.142L177.089 167.096H178.649L174.363 179.417H172.833L174.27 175.254L174.935 175.832H173.217L170.238 167.096H171.806L174.289 174.794ZM183.902 176.441C182.596 176.441 181.605 176.087 180.931 175.381C180.256 174.674 179.919 173.657 179.919 172.33V170.941C179.919 169.622 180.257 168.61 180.934 167.906C181.611 167.204 182.601 166.853 183.902 166.853C185.209 166.853 186.2 167.204 186.874 167.906C187.551 168.61 187.89 169.622 187.89 170.941V172.33C187.89 173.657 187.551 174.674 186.874 175.381C186.2 176.087 185.209 176.441 183.902 176.441ZM183.902 175.205C184.711 175.205 185.326 174.966 185.747 174.488C186.167 174.008 186.378 173.317 186.378 172.416V170.856C186.378 169.96 186.167 169.274 185.747 168.798C185.326 168.323 184.711 168.085 183.902 168.085C183.099 168.085 182.486 168.323 182.066 168.798C181.642 169.274 181.431 169.96 181.431 170.856V172.416C181.431 173.317 181.642 174.008 182.066 174.488C182.486 174.966 183.099 175.205 183.902 175.205ZM189.876 167.096H191.377V172.763C191.377 173.241 191.444 173.659 191.579 174.018C191.713 174.376 191.932 174.653 192.236 174.847C192.542 175.043 192.953 175.142 193.468 175.142C193.953 175.142 194.37 175.053 194.718 174.877C195.067 174.697 195.352 174.452 195.573 174.141C195.795 173.83 195.946 173.479 196.025 173.088L196.298 174.16H195.969C195.877 174.57 195.707 174.946 195.458 175.287C195.209 175.626 194.874 175.896 194.453 176.097C194.033 176.302 193.515 176.404 192.9 176.404C192.183 176.404 191.603 176.268 191.16 175.997C190.715 175.725 190.389 175.33 190.182 174.809C189.978 174.289 189.876 173.662 189.876 172.928V167.096ZM195.962 167.096H197.474V176.206H195.962L196.025 174.022L195.962 173.928V167.096ZM201.372 170.632L201.028 169.467L201.401 169.448C201.601 168.676 201.943 168.068 202.428 167.622C202.914 167.177 203.557 166.954 204.358 166.954C204.558 166.954 204.737 166.97 204.896 167.003C205.055 167.032 205.197 167.07 205.322 167.115L205.415 168.578C205.261 168.528 205.088 168.489 204.896 168.459C204.707 168.426 204.497 168.41 204.265 168.41C203.581 168.41 202.986 168.601 202.48 168.981C201.973 169.362 201.603 169.912 201.372 170.632ZM201.45 176.206H199.938V167.096H201.413L201.338 169.784L201.45 169.896V176.206ZM224.109 176.206H222.597V170.501C222.597 170.023 222.536 169.609 222.414 169.258C222.292 168.904 222.093 168.632 221.816 168.44C221.54 168.246 221.168 168.149 220.7 168.149C220.259 168.149 219.877 168.24 219.554 168.421C219.23 168.601 218.969 168.842 218.77 169.146C218.571 169.447 218.43 169.79 218.348 170.176L218.116 169.101H218.303C218.403 168.71 218.571 168.347 218.807 168.011C219.044 167.675 219.363 167.403 219.767 167.197C220.172 166.993 220.674 166.891 221.271 166.891C221.948 166.891 222.495 167.024 222.91 167.29C223.323 167.559 223.626 167.95 223.818 168.462C224.012 168.975 224.109 169.599 224.109 170.333V176.206ZM212.729 176.206H211.217V167.096H212.729L212.665 169.28L212.729 169.373V176.206ZM218.415 176.206H216.911V170.501C216.911 170.023 216.851 169.609 216.731 169.258C216.609 168.904 216.411 168.632 216.138 168.44C215.864 168.246 215.493 168.149 215.025 168.149C214.577 168.149 214.191 168.24 213.868 168.421C213.544 168.601 213.283 168.844 213.084 169.153C212.885 169.462 212.745 169.813 212.665 170.206L212.385 169.131H212.722C212.814 168.72 212.975 168.345 213.207 168.007C213.436 167.666 213.748 167.395 214.144 167.193C214.54 166.991 215.02 166.891 215.585 166.891C216.426 166.891 217.066 167.108 217.504 167.544C217.942 167.98 218.217 168.614 218.329 169.448C218.362 169.573 218.384 169.708 218.396 169.855C218.409 169.999 218.415 170.144 218.415 170.288V176.206ZM230.277 176.411C228.89 176.411 227.845 176.071 227.14 175.392C226.438 174.715 226.088 173.744 226.088 172.48V170.856C226.088 169.574 226.414 168.587 227.066 167.895C227.72 167.2 228.676 166.853 229.933 166.853C230.779 166.853 231.485 167.01 232.05 167.324C232.617 167.637 233.044 168.084 233.331 168.664C233.617 169.241 233.76 169.932 233.76 170.736V171.072C233.76 171.271 233.751 171.47 233.734 171.669C233.719 171.869 233.699 172.064 233.674 172.256H232.285C232.298 171.957 232.305 171.674 232.308 171.408C232.31 171.139 232.311 170.893 232.311 170.669C232.311 170.116 232.223 169.648 232.046 169.265C231.869 168.882 231.604 168.589 231.251 168.388C230.9 168.186 230.461 168.085 229.933 168.085C229.149 168.085 228.56 168.312 228.167 168.765C227.776 169.22 227.581 169.871 227.581 170.717V171.584L227.588 171.77V172.64C227.588 173.019 227.644 173.361 227.756 173.667C227.868 173.971 228.044 174.233 228.283 174.455C228.524 174.676 228.83 174.844 229.201 174.959C229.57 175.073 230.009 175.13 230.519 175.13C231.112 175.13 231.663 175.053 232.173 174.899C232.683 174.742 233.163 174.531 233.611 174.264L233.469 175.571C233.065 175.825 232.596 176.029 232.061 176.183C231.526 176.335 230.931 176.411 230.277 176.411ZM233.357 172.256H226.879V171.117H233.357V172.256ZM238.778 176.404C237.683 176.404 236.849 176.064 236.276 175.384C235.704 174.705 235.418 173.715 235.418 172.416V170.912C235.418 169.605 235.708 168.608 236.287 167.921C236.865 167.234 237.717 166.891 238.845 166.891C239.405 166.891 239.89 166.985 240.301 167.174C240.712 167.364 241.044 167.63 241.298 167.973C241.554 168.314 241.726 168.719 241.813 169.187H242.306L241.858 170.576C241.84 170.04 241.721 169.591 241.499 169.228C241.278 168.864 240.979 168.589 240.603 168.403C240.228 168.216 239.797 168.123 239.312 168.123C238.54 168.123 237.95 168.347 237.542 168.795C237.134 169.243 236.93 169.902 236.93 170.773V172.51C236.93 173.368 237.134 174.022 237.542 174.47C237.95 174.918 238.54 175.142 239.312 175.142C239.772 175.142 240.179 175.053 240.532 174.877C240.888 174.697 241.183 174.451 241.417 174.137C241.649 173.824 241.808 173.468 241.895 173.07L242.269 174.152H241.821C241.733 174.563 241.568 174.939 241.324 175.28C241.078 175.623 240.748 175.896 240.335 176.097C239.919 176.302 239.4 176.404 238.778 176.404ZM243.333 176.206H241.821L241.888 174.003L241.858 173.518V169.709L241.869 169.392L241.832 166.805V163.837H243.333V176.206ZM247.339 176.206H245.827V167.096H247.339V176.206ZM246.581 165.603C246.27 165.603 246.038 165.52 245.886 165.356C245.735 165.189 245.659 164.963 245.659 164.677V164.632C245.659 164.338 245.735 164.11 245.886 163.949C246.038 163.787 246.27 163.706 246.581 163.706C246.892 163.706 247.126 163.787 247.283 163.949C247.437 164.11 247.514 164.338 247.514 164.632V164.677C247.514 164.97 247.437 165.198 247.283 165.36C247.126 165.522 246.892 165.603 246.581 165.603ZM253.346 176.411C252.039 176.411 251.067 176.058 250.43 175.351C249.793 174.644 249.474 173.643 249.474 172.349V170.93C249.474 169.631 249.794 168.632 250.434 167.932C251.076 167.23 252.047 166.879 253.346 166.879C253.732 166.879 254.084 166.915 254.403 166.988C254.719 167.06 255.004 167.153 255.257 167.268C255.509 167.382 255.722 167.502 255.896 167.626L256.027 168.944C255.733 168.72 255.386 168.53 254.985 168.373C254.584 168.218 254.113 168.141 253.57 168.141C252.699 168.141 252.05 168.383 251.625 168.866C251.199 169.346 250.986 170.047 250.986 170.968V172.312C250.986 173.215 251.199 173.91 251.625 174.395C252.05 174.88 252.699 175.123 253.57 175.123C254.13 175.123 254.614 175.045 255.022 174.888C255.43 174.733 255.793 174.544 256.109 174.32L255.971 175.653C255.697 175.84 255.338 176.013 254.895 176.172C254.455 176.331 253.938 176.411 253.346 176.411ZM264.845 176.206H263.344L263.408 173.992L263.352 173.76V170.856L263.363 170.325C263.363 169.584 263.174 169.036 262.795 168.683C262.42 168.327 261.825 168.149 261.011 168.149C260.356 168.149 259.756 168.242 259.211 168.429C258.669 168.615 258.186 168.835 257.763 169.086L257.901 167.794C258.137 167.652 258.419 167.512 258.745 167.372C259.073 167.23 259.447 167.113 259.865 167.021C260.285 166.927 260.748 166.879 261.254 166.879C261.906 166.879 262.461 166.959 262.919 167.118C263.377 167.278 263.746 167.507 264.028 167.805C264.311 168.104 264.519 168.465 264.651 168.888C264.78 169.311 264.845 169.784 264.845 170.307V176.206ZM260.208 176.404C259.305 176.404 258.611 176.183 258.129 175.743C257.648 175.305 257.408 174.677 257.408 173.861V173.592C257.408 172.751 257.667 172.124 258.185 171.711C258.705 171.297 259.531 171.01 260.664 170.848L263.55 170.437L263.632 171.539L260.85 171.938C260.153 172.038 259.656 172.208 259.357 172.45C259.058 172.689 258.909 173.041 258.909 173.506V173.656C258.909 174.136 259.057 174.503 259.353 174.757C259.649 175.013 260.092 175.142 260.682 175.142C261.205 175.142 261.653 175.051 262.026 174.869C262.4 174.69 262.702 174.447 262.934 174.141C263.163 173.837 263.318 173.499 263.4 173.126L263.632 174.152H263.344C263.257 174.551 263.093 174.92 262.851 175.261C262.613 175.605 262.279 175.881 261.851 176.09C261.42 176.299 260.873 176.404 260.208 176.404ZM270.472 176.392C269.77 176.392 269.203 176.287 268.773 176.075C268.345 175.863 268.034 175.542 267.839 175.112C267.648 174.684 267.552 174.149 267.552 173.506V167.757H269.045V173.331C269.045 173.928 269.182 174.369 269.456 174.653C269.73 174.934 270.19 175.074 270.837 175.074C271.203 175.074 271.557 175.035 271.898 174.955C272.236 174.873 272.555 174.757 272.854 174.608L272.712 175.907C272.42 176.056 272.078 176.175 271.685 176.262C271.294 176.349 270.89 176.392 270.472 176.392ZM272.618 168.44H266.059V167.227H272.76L272.618 168.44ZM269.008 167.376H267.559L267.552 164.818L269.072 164.621L269.008 167.376ZM276.083 176.206H274.571V167.096H276.083V176.206ZM275.325 165.603C275.014 165.603 274.783 165.52 274.631 165.356C274.479 165.189 274.403 164.963 274.403 164.677V164.632C274.403 164.338 274.479 164.11 274.631 163.949C274.783 163.787 275.014 163.706 275.325 163.706C275.636 163.706 275.87 163.787 276.027 163.949C276.181 164.11 276.259 164.338 276.259 164.632V164.677C276.259 164.97 276.181 165.198 276.027 165.36C275.87 165.522 275.636 165.603 275.325 165.603ZM282.202 176.441C280.896 176.441 279.905 176.087 279.23 175.381C278.556 174.674 278.219 173.657 278.219 172.33V170.941C278.219 169.622 278.557 168.61 279.234 167.906C279.914 167.204 280.903 166.853 282.202 166.853C283.509 166.853 284.501 167.204 285.178 167.906C285.852 168.61 286.19 169.622 286.19 170.941V172.33C286.19 173.657 285.852 174.674 285.178 175.381C284.501 176.087 283.509 176.441 282.202 176.441ZM282.202 175.205C283.011 175.205 283.626 174.966 284.047 174.488C284.467 174.008 284.678 173.317 284.678 172.416V170.856C284.678 169.96 284.467 169.274 284.047 168.798C283.626 168.323 283.011 168.085 282.202 168.085C281.401 168.085 280.789 168.323 280.365 168.798C279.942 169.274 279.731 169.96 279.731 170.856V172.416C279.731 173.317 279.942 174.008 280.365 174.488C280.789 174.966 281.401 175.205 282.202 175.205ZM295.897 176.206H294.385V170.538C294.385 170.048 294.318 169.626 294.183 169.273C294.049 168.917 293.831 168.64 293.53 168.444C293.229 168.247 292.817 168.149 292.294 168.149C291.814 168.149 291.398 168.24 291.047 168.421C290.696 168.601 290.411 168.844 290.192 169.153C289.975 169.462 289.824 169.813 289.737 170.206L289.464 169.131H289.793C289.892 168.72 290.066 168.345 290.315 168.007C290.564 167.666 290.898 167.395 291.316 167.193C291.736 166.991 292.252 166.891 292.862 166.891C293.583 166.891 294.167 167.027 294.613 167.301C295.058 167.575 295.383 167.968 295.587 168.481C295.794 168.994 295.897 169.624 295.897 170.37V176.206ZM289.8 176.206H288.288V167.096H289.8L289.737 169.28L289.8 169.366V176.206ZM301.083 176.411C300.348 176.411 299.708 176.331 299.16 176.172C298.612 176.013 298.158 175.84 297.797 175.653L297.659 174.253C298.112 174.49 298.611 174.695 299.156 174.869C299.701 175.043 300.319 175.13 301.008 175.13C301.712 175.13 302.241 175.018 302.595 174.794C302.951 174.573 303.129 174.241 303.129 173.798V173.693C303.129 173.407 303.061 173.17 302.927 172.984C302.793 172.797 302.551 172.633 302.203 172.491C301.854 172.347 301.36 172.203 300.721 172.062C299.954 171.892 299.35 171.694 298.91 171.468C298.467 171.241 298.151 170.96 297.961 170.624C297.772 170.288 297.678 169.877 297.678 169.392V169.306C297.678 168.51 297.954 167.906 298.507 167.495C299.062 167.085 299.895 166.879 301.008 166.879C301.725 166.879 302.346 166.96 302.871 167.122C303.396 167.284 303.827 167.464 304.163 167.663L304.305 168.944C303.899 168.708 303.435 168.511 302.912 168.354C302.389 168.2 301.802 168.123 301.15 168.123C300.677 168.123 300.294 168.171 300 168.268C299.709 168.363 299.497 168.5 299.365 168.679C299.236 168.856 299.171 169.068 299.171 169.317V169.392C299.171 169.666 299.236 169.897 299.365 170.086C299.497 170.276 299.732 170.441 300.071 170.583C300.409 170.722 300.881 170.857 301.486 170.986C302.263 171.143 302.88 171.33 303.338 171.546C303.796 171.765 304.124 172.042 304.323 172.375C304.523 172.706 304.622 173.133 304.622 173.656V173.816C304.622 174.675 304.323 175.322 303.726 175.758C303.129 176.193 302.248 176.411 301.083 176.411Z" fill="#0070FA"/>
</g>
</g>
</g>
</g>
</g>
</g>
</g>
<path d="M224.16 0.434326C298.252 0.434326 358.316 60.4984 358.316 134.59C358.316 208.682 298.252 268.746 224.16 268.746C168.582 268.746 120.897 234.949 100.536 186.785H103.477C123.673 233.417 170.106 266.042 224.16 266.042C296.759 266.042 355.612 207.19 355.612 134.59C355.612 61.9908 296.759 3.13807 224.16 3.13807C170.107 3.13807 123.673 35.7631 103.477 82.3953H100.536C120.896 34.2316 168.581 0.434326 224.16 0.434326Z" fill="#16215B"/>
</g>
<defs>
<clipPath id="clip0_335_1067">
<rect width="429.299" height="268.312" fill="white" transform="translate(-42.6493 0.434082)"/>
</clipPath>
<clipPath id="clip1_335_1067">
<rect width="265.307" height="90.2351" fill="white" transform="translate(39.3466 89.4719)"/>
</clipPath>
<clipPath id="clip2_335_1067">
<rect width="265.307" height="90.2351" fill="white" transform="translate(39.3466 89.4719)"/>
</clipPath>
<clipPath id="clip3_335_1067">
<rect width="265.307" height="90.2351" fill="white" transform="translate(39.3466 89.4719)"/>
</clipPath>
<clipPath id="clip4_335_1067">
<rect width="265.307" height="90.2351" fill="white" transform="translate(39.3466 89.4719)"/>
</clipPath>
<clipPath id="clip5_335_1067">
<rect width="265.307" height="90.2351" fill="white" transform="translate(39.3466 89.4719)"/>
</clipPath>
<clipPath id="clip6_335_1067">
<rect width="265.307" height="59.9589" fill="white" transform="translate(39.3466 89.4719)"/>
</clipPath>
<clipPath id="clip7_335_1067">
<rect width="265.307" height="59.9589" fill="white" transform="translate(39.3466 89.4719)"/>
</clipPath>
<clipPath id="clip8_335_1067">
<rect width="265.307" height="16.1213" fill="white" transform="translate(39.3466 163.586)"/>
</clipPath>
<clipPath id="clip9_335_1067">
<rect width="265.307" height="16.1213" fill="white" transform="translate(39.3466 163.586)"/>
</clipPath>
</defs>
</svg>
